# Blender v2.80 (sub 74) OBJ File: 'Flowers.blend'
# www.blender.org
mtllib GroundCover.mtl
g GroundCover_Plane.001
v -1.233800 0.129863 0.691185
v 0.691185 0.129863 1.233800
v -0.691185 0.129863 -1.233800
v 1.233800 0.129863 -0.691185
v -1.744739 0.307004 1.391642
v -0.163107 0.152435 0.177330
v -2.968848 0.107291 -0.177330
v -1.387216 -0.047277 -1.391641
v 0.166085 0.300923 2.457442
v 0.124235 0.213446 0.459794
v -1.816938 0.046280 2.510137
v -1.858788 -0.041197 0.512489
v 0.166085 0.180795 0.194956
v 0.124235 0.093318 -1.802692
v -1.816938 -0.073848 0.247651
v -1.858789 -0.161325 -1.749997
v 1.200865 0.129863 0.121245
v 2.978673 0.129863 -0.794942
v 0.284678 0.129863 -1.656563
v 2.062486 0.129863 -2.572750
v 3.429297 0.300923 0.458041
v 2.036141 0.213446 -0.974252
v 2.015096 0.046280 1.849152
v 0.621939 -0.041197 0.416859
v 1.886105 0.180795 -1.196468
v 0.492948 0.093318 -2.628761
v 0.471903 -0.073848 0.194643
v -0.921253 -0.161325 -1.237650
v 1.894490 0.300923 2.457442
v 1.852639 0.213446 0.459794
v -0.088534 0.046280 2.510137
v -0.130384 -0.041197 0.512489
vt 0.999900 0.999900
vt 0.000100 0.999900
vt 0.000100 0.000100
vt 0.999900 0.000100
vt 0.999900 0.999900
vt 0.000100 0.999900
vt 0.000100 0.000100
vt 0.999900 0.000100
vt 0.999900 0.999900
vt 0.000100 0.999900
vt 0.000100 0.000100
vt 0.999900 0.000100
vt 0.999900 0.999900
vt 0.000100 0.999900
vt 0.000100 0.000100
vt 0.999900 0.000100
vt 0.999900 0.999900
vt 0.000100 0.999900
vt 0.000100 0.000100
vt 0.999900 0.000100
vt 0.999900 0.999900
vt 0.000100 0.999900
vt 0.000100 0.000100
vt 0.999900 0.000100
vt 0.999900 0.999900
vt 0.000100 0.999900
vt 0.000100 0.000100
vt 0.999900 0.000100
vt 0.999900 0.999900
vt 0.000100 0.999900
vt 0.000100 0.000100
vt 0.999900 0.000100
vn 0.0000 1.0000 -0.0000
vn -0.0000 0.9920 -0.1263
vn -0.1283 0.9909 -0.0407
vn -0.1216 0.9909 0.0578
usemtl None
s off
f 1/1/1 2/2/1 4/3/1 3/4/1
f 5/5/2 6/6/2 8/7/2 7/8/2
f 9/9/3 10/10/3 12/11/3 11/12/3
f 13/13/3 14/14/3 16/15/3 15/16/3
f 17/17/1 18/18/1 20/19/1 19/20/1
f 21/21/4 22/22/4 24/23/4 23/24/4
f 25/25/4 26/26/4 28/27/4 27/28/4
f 29/29/3 30/30/3 32/31/3 31/32/3
